<svg viewBox="0 0 710 724" xmlns="http://www.w3.org/2000/svg" fill-rule="evenodd" clip-rule="evenodd" stroke-linejoin="round" stroke-miterlimit="2"><path d="M347.2 92.13c150.062.21 273.426 123.747 273.426 273.81 0 150.207-123.602 273.81-273.81 273.81S73.006 516.147 73.006 365.94c0-109.834 66.087-209.491 167.264-252.23A273.01 273.01 0 01347.2 92.13m0-33c-170 0-307.74 137.79-307.74 307.75S177.24 674.62 347.2 674.62 655 536.84 655 366.88 517.17 59.13 347.2 59.13z" fill="#f9f9f9" fill-rule="nonzero"/><path d="M373.5 77.5s108 59 108 297c0 220-116 283-116 283m-39.59-580S210 136.5 210 374.5c0 220 124.5 283 124.5 283" fill="none" stroke="#f9f9f9" stroke-miterlimit="10" stroke-width="33"/><path d="M100 211s111 24 247 24c134 0 239-24 239-24m0 310s-111-24-247-24c-134 0-239 24-239 24" fill="none" stroke="#f9f9f9" stroke-miterlimit="10" stroke-width="33"/><path d="M59 367h576" fill="none"/></svg>